<?xml version="1.0" encoding="UTF-8" standalone="no"?>
<!DOCTYPE svg PUBLIC "-//W3C//DTD SVG 1.1//EN"
 "http://www.w3.org/Graphics/SVG/1.1/DTD/svg11.dtd">
<!-- Generated by graphviz version 2.43.0 (0)
 -->
<!-- Title: circuit Pages: 1 -->
<svg width="215pt" height="192pt"
 viewBox="0.00 0.00 215.39 192.00" xmlns="http://www.w3.org/2000/svg" xmlns:xlink="http://www.w3.org/1999/xlink">
<g id="graph0" class="graph" transform="scale(1 1) rotate(0) translate(4 188)">
<title>circuit</title>
<polygon fill="white" stroke="transparent" points="-4,4 -4,-188 211.39,-188 211.39,4 -4,4"/>
<!-- net_vin -->
<g id="node1" class="node">
<title>net_vin</title>
<ellipse fill="none" stroke="black" cx="176.2" cy="-164" rx="27" ry="18"/>
<text text-anchor="middle" x="176.2" y="-160.3" font-family="Times,serif" font-size="14.00">vin</text>
</g>
<!-- net_0 -->
<g id="node2" class="node">
<title>net_0</title>
<ellipse fill="lightgray" stroke="black" cx="176.2" cy="-99" rx="27" ry="18"/>
<text text-anchor="middle" x="176.2" y="-95.3" font-family="Times,serif" font-size="14.00">0</text>
</g>
<!-- net_vout -->
<g id="node3" class="node">
<title>net_vout</title>
<ellipse fill="none" stroke="black" cx="176.2" cy="-18" rx="31.4" ry="18"/>
<text text-anchor="middle" x="176.2" y="-14.3" font-family="Times,serif" font-size="14.00">vout</text>
</g>
<!-- comp_1 -->
<g id="node4" class="node">
<title>comp_1</title>
<polygon fill="none" stroke="black" points="99,-113 0,-113 0,-75 99,-75 99,-113"/>
<text text-anchor="middle" x="49.5" y="-97.8" font-family="Times,serif" font-size="14.00">Capacitor 1</text>
<text text-anchor="middle" x="49.5" y="-82.8" font-family="Times,serif" font-size="14.00">100n</text>
</g>
<!-- comp_1&#45;&#45;net_vin -->
<g id="edge1" class="edge">
<title>comp_1&#45;&#45;net_vin</title>
<path fill="none" stroke="black" d="M61.38,-113.09C72.7,-130.81 92.22,-156.05 117,-167 127.36,-171.58 139.8,-171.58 150.51,-170.13"/>
<text text-anchor="middle" x="122" y="-172.8" font-family="Times,serif" font-size="14.00">p</text>
</g>
<!-- comp_1&#45;&#45;net_vin -->
<g id="edge3" class="edge">
<title>comp_1&#45;&#45;net_vin</title>
<path fill="none" stroke="black" d="M84.57,-113.13C107.07,-125.76 135.8,-141.89 154.82,-152.56"/>
<text text-anchor="middle" x="122" y="-138.8" font-family="Times,serif" font-size="14.00">a</text>
</g>
<!-- comp_1&#45;&#45;net_0 -->
<g id="edge2" class="edge">
<title>comp_1&#45;&#45;net_0</title>
<path fill="none" stroke="black" d="M99.07,-95.95C116.16,-96.63 134.72,-97.38 149.22,-97.96"/>
<text text-anchor="middle" x="122" y="-99.8" font-family="Times,serif" font-size="14.00">n</text>
</g>
<!-- comp_1&#45;&#45;net_0 -->
<g id="edge6" class="edge">
<title>comp_1&#45;&#45;net_0</title>
<path fill="none" stroke="black" d="M99.05,-76.78C108.32,-75.31 117.96,-75.03 127,-77 136.71,-79.11 146.8,-83.36 155.23,-87.56"/>
<text text-anchor="middle" x="122" y="-80.8" font-family="Times,serif" font-size="14.00">b</text>
</g>
<!-- comp_1&#45;&#45;net_vout -->
<g id="edge4" class="edge">
<title>comp_1&#45;&#45;net_vout</title>
<path fill="none" stroke="black" d="M81.97,-74.82C104.48,-61.1 134.17,-43 153.94,-30.96"/>
<text text-anchor="middle" x="122" y="-54.8" font-family="Times,serif" font-size="14.00">b</text>
</g>
<!-- comp_1&#45;&#45;net_vout -->
<g id="edge5" class="edge">
<title>comp_1&#45;&#45;net_vout</title>
<path fill="none" stroke="black" d="M65.32,-74.74C77.58,-60.19 96.3,-40.9 117,-30 125.67,-25.43 135.92,-22.6 145.38,-20.85"/>
<text text-anchor="middle" x="122" y="-33.8" font-family="Times,serif" font-size="14.00">a</text>
</g>
</g>
</svg>
