<?xml version="1.0" encoding="UTF-8" standalone="no"?>
<!DOCTYPE svg PUBLIC "-//W3C//DTD SVG 1.1//EN"
 "http://www.w3.org/Graphics/SVG/1.1/DTD/svg11.dtd">
<!-- Generated by graphviz version 13.1.2 (20250808.2320)
 -->
<!-- Title: circuit Pages: 1 -->
<svg width="184pt" height="198pt"
 viewBox="0.00 0.00 184.00 198.00" xmlns="http://www.w3.org/2000/svg" xmlns:xlink="http://www.w3.org/1999/xlink">
<g id="graph0" class="graph" transform="scale(1 1) rotate(0) translate(4 194)">
<title>circuit</title>
<polygon fill="white" stroke="none" points="-4,4 -4,-194 180.34,-194 180.34,4 -4,4"/>
<!-- net_vout -->
<g id="node1" class="node">
<title>net_vout</title>
<ellipse fill="none" stroke="black" cx="149.05" cy="-172" rx="27.3" ry="18"/>
<text xml:space="preserve" text-anchor="middle" x="149.05" y="-166.95" font-family="Times,serif" font-size="14.00">vout</text>
</g>
<!-- net_0 -->
<g id="node2" class="node">
<title>net_0</title>
<ellipse fill="lightgray" stroke="black" cx="149.05" cy="-85" rx="27" ry="18"/>
<text xml:space="preserve" text-anchor="middle" x="149.05" y="-79.95" font-family="Times,serif" font-size="14.00">0</text>
</g>
<!-- net_vin -->
<g id="node3" class="node">
<title>net_vin</title>
<ellipse fill="none" stroke="black" cx="149.05" cy="-18" rx="27" ry="18"/>
<text xml:space="preserve" text-anchor="middle" x="149.05" y="-12.95" font-family="Times,serif" font-size="14.00">vin</text>
</g>
<!-- comp_1 -->
<g id="node4" class="node">
<title>comp_1</title>
<polygon fill="none" stroke="black" points="79,-112.5 0,-112.5 0,-71.5 79,-71.5 79,-112.5"/>
<text xml:space="preserve" text-anchor="middle" x="39.5" y="-95.2" font-family="Times,serif" font-size="14.00">Capacitor 1</text>
<text xml:space="preserve" text-anchor="middle" x="39.5" y="-78.7" font-family="Times,serif" font-size="14.00">100n</text>
</g>
<!-- comp_1&#45;&#45;net_vout -->
<g id="edge4" class="edge">
<title>comp_1&#45;&#45;net_vout</title>
<path fill="none" stroke="black" d="M49.1,-112.77C58.05,-131.42 74,-157.69 97,-170 104.51,-174.02 113.56,-175.3 121.95,-175.34"/>
<text xml:space="preserve" text-anchor="middle" x="100.37" y="-175.86" font-family="Times,serif" font-size="14.00">b</text>
</g>
<!-- comp_1&#45;&#45;net_vout -->
<g id="edge5" class="edge">
<title>comp_1&#45;&#45;net_vout</title>
<path fill="none" stroke="black" d="M68.48,-112.81C87.89,-127.25 113.19,-146.07 130,-158.57"/>
<text xml:space="preserve" text-anchor="middle" x="100.37" y="-139.99" font-family="Times,serif" font-size="14.00">a</text>
</g>
<!-- comp_1&#45;&#45;net_0 -->
<g id="edge2" class="edge">
<title>comp_1&#45;&#45;net_0</title>
<path fill="none" stroke="black" d="M79.33,-91.27C87.41,-90.98 95.86,-90.57 103.75,-90 109.77,-89.57 116.24,-88.93 122.31,-88.26"/>
<text xml:space="preserve" text-anchor="middle" x="100.37" y="-93.54" font-family="Times,serif" font-size="14.00">n</text>
</g>
<!-- comp_1&#45;&#45;net_0 -->
<g id="edge6" class="edge">
<title>comp_1&#45;&#45;net_0</title>
<path fill="none" stroke="black" d="M79.44,-74.3C85.22,-72.32 91.19,-70.61 97,-69.5 107.19,-67.55 118.23,-70.27 127.43,-73.95"/>
<text xml:space="preserve" text-anchor="middle" x="100.37" y="-72.7" font-family="Times,serif" font-size="14.00">b</text>
</g>
<!-- comp_1&#45;&#45;net_vin -->
<g id="edge1" class="edge">
<title>comp_1&#45;&#45;net_vin</title>
<path fill="none" stroke="black" d="M66.19,-71.2C75.69,-63.79 86.66,-55.53 97,-48.5 106.9,-41.76 118.31,-34.87 127.83,-29.34"/>
<text xml:space="preserve" text-anchor="middle" x="100.37" y="-51.7" font-family="Times,serif" font-size="14.00">p</text>
</g>
<!-- comp_1&#45;&#45;net_vin -->
<g id="edge3" class="edge">
<title>comp_1&#45;&#45;net_vin</title>
<path fill="none" stroke="black" d="M51.66,-71.17C61.38,-55.24 77.05,-34.25 97,-23.5 104.45,-19.48 113.41,-17.69 121.72,-17.02"/>
<text xml:space="preserve" text-anchor="middle" x="100.37" y="-26.7" font-family="Times,serif" font-size="14.00">a</text>
</g>
</g>
</svg>
